<svg width="320" height="72" viewBox="0 0 320 72" fill="none" xmlns="http://www.w3.org/2000/svg">
<rect x="0.5" y="0.5" width="319" height="71" rx="19.5" fill="#3B3B3B"/>
<rect x="0.5" y="0.5" width="319" height="71" rx="19.5" stroke="#A259FF"/>
<g clip-path="url(#clip0_2001_1361)">
<path d="M60 56C71.0457 56 80 47.0457 80 36C80 24.9543 71.0457 16 60 16C48.9543 16 40 24.9543 40 36C40 47.0457 48.9543 56 60 56Z" fill="#0052FF"/>
<path fill-rule="evenodd" clip-rule="evenodd" d="M45.9375 36C45.9375 43.7665 52.2335 50.0625 60 50.0625C67.7665 50.0625 74.0625 43.7665 74.0625 36C74.0625 28.2335 67.7665 21.9375 60 21.9375C52.2335 21.9375 45.9375 28.2335 45.9375 36ZM56.4062 31.4688C55.8885 31.4688 55.4688 31.8885 55.4688 32.4062V39.5938C55.4688 40.1115 55.8885 40.5312 56.4062 40.5312H63.5938C64.1115 40.5312 64.5312 40.1115 64.5312 39.5938V32.4062C64.5312 31.8885 64.1115 31.4688 63.5938 31.4688H56.4062Z" fill="white"/>
</g>
<path d="M114.322 39.496C114.043 40.4347 113.603 41.2193 113.002 41.85C112.401 42.4807 111.689 42.95 110.868 43.258C110.047 43.566 109.145 43.72 108.162 43.72C106.725 43.72 105.478 43.4193 104.422 42.818C103.381 42.2167 102.574 41.3587 102.002 40.244C101.445 39.1293 101.166 37.7947 101.166 36.24C101.166 34.6853 101.445 33.3507 102.002 32.236C102.574 31.1213 103.381 30.2633 104.422 29.662C105.478 29.0607 106.71 28.76 108.118 28.76C109.115 28.76 110.017 28.8993 110.824 29.178C111.631 29.442 112.313 29.8527 112.87 30.41C113.442 30.9673 113.86 31.6713 114.124 32.522L111.374 33.688C111.125 32.808 110.743 32.1847 110.23 31.818C109.717 31.4367 109.057 31.246 108.25 31.246C107.458 31.246 106.761 31.4367 106.16 31.818C105.573 32.1993 105.119 32.764 104.796 33.512C104.473 34.2453 104.312 35.1547 104.312 36.24C104.312 37.3107 104.459 38.22 104.752 38.968C105.06 39.716 105.507 40.2807 106.094 40.662C106.681 41.0433 107.399 41.234 108.25 41.234C109.042 41.234 109.724 41.0213 110.296 40.596C110.883 40.1707 111.293 39.5253 111.528 38.66L114.322 39.496ZM121.618 32.28C122.732 32.28 123.708 32.5073 124.544 32.962C125.394 33.4167 126.054 34.0693 126.524 34.92C127.008 35.7707 127.25 36.7973 127.25 38C127.25 39.188 127.008 40.2147 126.524 41.08C126.054 41.9307 125.394 42.5833 124.544 43.038C123.708 43.4927 122.732 43.72 121.618 43.72C120.518 43.72 119.542 43.4927 118.692 43.038C117.841 42.5833 117.174 41.9307 116.69 41.08C116.22 40.2147 115.986 39.188 115.986 38C115.986 36.7973 116.22 35.7707 116.69 34.92C117.174 34.0693 117.841 33.4167 118.692 32.962C119.542 32.5073 120.518 32.28 121.618 32.28ZM121.618 34.524C121.06 34.524 120.584 34.656 120.188 34.92C119.806 35.1693 119.513 35.5507 119.308 36.064C119.102 36.5773 119 37.2227 119 38C119 38.7773 119.102 39.4227 119.308 39.936C119.513 40.4493 119.806 40.838 120.188 41.102C120.584 41.3513 121.06 41.476 121.618 41.476C122.16 41.476 122.622 41.3513 123.004 41.102C123.4 40.838 123.7 40.4493 123.906 39.936C124.111 39.4227 124.214 38.7773 124.214 38C124.214 37.2227 124.111 36.5773 123.906 36.064C123.7 35.5507 123.4 35.1693 123.004 34.92C122.622 34.656 122.16 34.524 121.618 34.524ZM131.29 30.916C130.659 30.916 130.19 30.784 129.882 30.52C129.574 30.2413 129.42 29.838 129.42 29.31C129.42 28.7673 129.574 28.364 129.882 28.1C130.19 27.8213 130.659 27.682 131.29 27.682C131.92 27.682 132.39 27.8213 132.698 28.1C133.006 28.364 133.16 28.7673 133.16 29.31C133.16 29.838 133.006 30.2413 132.698 30.52C132.39 30.784 131.92 30.916 131.29 30.916ZM132.786 32.5V43.5H129.772V32.5H132.786ZM135.98 43.5V32.5H138.686L138.862 35.8L138.488 35.448C138.664 34.7293 138.943 34.1353 139.324 33.666C139.706 33.1967 140.168 32.852 140.71 32.632C141.268 32.3973 141.876 32.28 142.536 32.28C143.299 32.28 143.974 32.4267 144.56 32.72C145.162 33.0133 145.631 33.4607 145.968 34.062C146.32 34.6487 146.496 35.3893 146.496 36.284V43.5H143.482V37.142C143.482 36.2033 143.299 35.558 142.932 35.206C142.566 34.8393 142.089 34.656 141.502 34.656C141.092 34.656 140.688 34.7587 140.292 34.964C139.911 35.1547 139.596 35.47 139.346 35.91C139.112 36.35 138.994 36.9367 138.994 37.67V43.5H135.98ZM156.07 43.72C155.395 43.72 154.779 43.5807 154.222 43.302C153.679 43.0087 153.224 42.6127 152.858 42.114C152.506 41.6007 152.264 41.0287 152.132 40.398L152.44 40.002L152.264 43.5H149.602V27.682H152.616V35.602L152.33 35.14C152.564 34.3187 153.012 33.6367 153.672 33.094C154.332 32.5513 155.16 32.28 156.158 32.28C157.023 32.28 157.808 32.5073 158.512 32.962C159.216 33.4167 159.766 34.0693 160.162 34.92C160.572 35.7707 160.778 36.8047 160.778 38.022C160.778 39.21 160.572 40.2293 160.162 41.08C159.766 41.9307 159.208 42.5833 158.49 43.038C157.786 43.4927 156.979 43.72 156.07 43.72ZM155.168 41.41C155.974 41.41 156.605 41.124 157.06 40.552C157.529 39.9653 157.764 39.1147 157.764 38C157.764 36.8853 157.536 36.042 157.082 35.47C156.627 34.8833 155.996 34.59 155.19 34.59C154.662 34.59 154.207 34.7293 153.826 35.008C153.444 35.2867 153.144 35.6827 152.924 36.196C152.718 36.7093 152.616 37.318 152.616 38.022C152.616 38.7407 152.718 39.3567 152.924 39.87C153.144 40.3687 153.444 40.75 153.826 41.014C154.222 41.278 154.669 41.41 155.168 41.41ZM169.6 36.482C169.6 35.8513 169.417 35.36 169.05 35.008C168.698 34.656 168.229 34.48 167.642 34.48C167.099 34.48 166.623 34.6193 166.212 34.898C165.801 35.1767 165.501 35.6387 165.31 36.284L162.736 35.492C162.985 34.524 163.528 33.7467 164.364 33.16C165.215 32.5733 166.351 32.28 167.774 32.28C168.742 32.28 169.585 32.434 170.304 32.742C171.023 33.0353 171.58 33.4827 171.976 34.084C172.387 34.6853 172.592 35.4407 172.592 36.35V40.816C172.592 41.3733 172.856 41.652 173.384 41.652C173.633 41.652 173.868 41.6153 174.088 41.542L173.912 43.412C173.531 43.6027 173.054 43.698 172.482 43.698C171.969 43.698 171.507 43.61 171.096 43.434C170.685 43.258 170.363 42.994 170.128 42.642C169.893 42.2753 169.776 41.8207 169.776 41.278V41.19L170.304 41.102C170.216 41.6593 169.974 42.136 169.578 42.532C169.182 42.9133 168.698 43.2067 168.126 43.412C167.569 43.6173 166.989 43.72 166.388 43.72C165.64 43.72 164.995 43.61 164.452 43.39C163.909 43.1553 163.491 42.818 163.198 42.378C162.905 41.938 162.758 41.3953 162.758 40.75C162.758 39.9287 163.022 39.2613 163.55 38.748C164.078 38.22 164.833 37.8607 165.816 37.67L169.952 36.834L169.93 38.704L167.29 39.232C166.791 39.3347 166.41 39.474 166.146 39.65C165.897 39.8113 165.772 40.0827 165.772 40.464C165.772 40.8307 165.904 41.1093 166.168 41.3C166.447 41.4907 166.777 41.586 167.158 41.586C167.466 41.586 167.767 41.5493 168.06 41.476C168.353 41.4027 168.617 41.2853 168.852 41.124C169.087 40.9627 169.27 40.7427 169.402 40.464C169.534 40.1853 169.6 39.848 169.6 39.452V36.482ZM180.363 43.72C179.248 43.72 178.229 43.522 177.305 43.126C176.396 42.73 175.655 42.1727 175.083 41.454L176.821 39.694C177.173 40.222 177.642 40.6547 178.229 40.992C178.816 41.3293 179.512 41.498 180.319 41.498C180.891 41.498 181.346 41.4173 181.683 41.256C182.035 41.08 182.211 40.8087 182.211 40.442C182.211 40.2073 182.13 40.0093 181.969 39.848C181.808 39.672 181.485 39.5327 181.001 39.43L179.065 39.034C177.789 38.77 176.88 38.374 176.337 37.846C175.809 37.3033 175.545 36.6067 175.545 35.756C175.545 35.1547 175.721 34.59 176.073 34.062C176.44 33.534 176.982 33.1087 177.701 32.786C178.42 32.4487 179.314 32.28 180.385 32.28C181.485 32.28 182.438 32.456 183.245 32.808C184.066 33.1453 184.712 33.6513 185.181 34.326L183.377 36.086C183.054 35.5727 182.629 35.184 182.101 34.92C181.588 34.6413 181.045 34.502 180.473 34.502C180.062 34.502 179.71 34.546 179.417 34.634C179.124 34.722 178.904 34.8467 178.757 35.008C178.61 35.1547 178.537 35.3453 178.537 35.58C178.537 35.8147 178.64 36.02 178.845 36.196C179.05 36.3573 179.424 36.4967 179.967 36.614L182.211 37.076C183.296 37.296 184.074 37.67 184.543 38.198C185.012 38.7113 185.247 39.3347 185.247 40.068C185.247 40.772 185.056 41.4027 184.675 41.96C184.308 42.5027 183.758 42.9353 183.025 43.258C182.306 43.566 181.419 43.72 180.363 43.72ZM192.711 43.72C191.553 43.72 190.541 43.4927 189.675 43.038C188.825 42.5833 188.165 41.9307 187.695 41.08C187.226 40.2293 186.991 39.2027 186.991 38C186.991 36.7973 187.226 35.7707 187.695 34.92C188.165 34.0693 188.817 33.4167 189.653 32.962C190.504 32.5073 191.472 32.28 192.557 32.28C193.672 32.28 194.618 32.5073 195.395 32.962C196.173 33.402 196.767 34.0107 197.177 34.788C197.588 35.5507 197.793 36.4233 197.793 37.406C197.793 37.6993 197.786 37.978 197.771 38.242C197.757 38.506 197.735 38.7407 197.705 38.946H188.927V36.856H196.385L194.933 37.384C194.933 36.46 194.721 35.7487 194.295 35.25C193.885 34.7513 193.298 34.502 192.535 34.502C191.978 34.502 191.494 34.634 191.083 34.898C190.687 35.162 190.387 35.558 190.181 36.086C189.976 36.5993 189.873 37.252 189.873 38.044C189.873 38.8213 189.983 39.4667 190.203 39.98C190.438 40.4787 190.761 40.8527 191.171 41.102C191.597 41.3513 192.103 41.476 192.689 41.476C193.335 41.476 193.855 41.3513 194.251 41.102C194.647 40.8527 194.955 40.508 195.175 40.068L197.573 40.992C197.339 41.564 196.979 42.0553 196.495 42.466C196.026 42.8767 195.461 43.192 194.801 43.412C194.156 43.6173 193.459 43.72 192.711 43.72Z" fill="white"/>
<defs>
<clipPath id="clip0_2001_1361">
<rect width="40" height="40" fill="white" transform="translate(40 16)"/>
</clipPath>
</defs>
</svg>
