<svg width="320" height="72" viewBox="0 0 320 72" fill="none" xmlns="http://www.w3.org/2000/svg">
<rect x="0.5" y="0.5" width="319" height="71" rx="19.5" fill="#3B3B3B"/>
<rect x="0.5" y="0.5" width="319" height="71" rx="19.5" stroke="#A259FF"/>
<g clip-path="url(#clip0_2001_1316)">
<path d="M78.0077 17.5625L62.3999 29.1547L65.2862 22.3154L78.0077 17.5625Z" fill="#E2761B" stroke="#E2761B" stroke-width="0.3125" stroke-linecap="round" stroke-linejoin="round"/>
<path d="M41.9763 17.5625L57.4587 29.2645L54.7136 22.3154L41.9763 17.5625Z" fill="#E4761B" stroke="#E4761B" stroke-width="0.3125" stroke-linecap="round" stroke-linejoin="round"/>
<path d="M72.3922 44.4331L68.2354 50.8017L77.1295 53.2488L79.6863 44.5743L72.3922 44.4331Z" fill="#E4761B" stroke="#E4761B" stroke-width="0.3125" stroke-linecap="round" stroke-linejoin="round"/>
<path d="M40.3293 44.5743L42.8705 53.2488L51.7646 50.8017L47.6078 44.4331L40.3293 44.5743Z" fill="#E4761B" stroke="#E4761B" stroke-width="0.3125" stroke-linecap="round" stroke-linejoin="round"/>
<path d="M51.2626 33.6723L48.7842 37.4213L57.6156 37.8134L57.3018 28.3232L51.2626 33.6723Z" fill="#E4761B" stroke="#E4761B" stroke-width="0.3125" stroke-linecap="round" stroke-linejoin="round"/>
<path d="M68.7215 33.6722L62.6038 28.2134L62.3999 37.8134L71.2156 37.4212L68.7215 33.6722Z" fill="#E4761B" stroke="#E4761B" stroke-width="0.3125" stroke-linecap="round" stroke-linejoin="round"/>
<path d="M51.7646 50.8017L57.0666 48.2134L52.4862 44.637L51.7646 50.8017Z" fill="#E4761B" stroke="#E4761B" stroke-width="0.3125" stroke-linecap="round" stroke-linejoin="round"/>
<path d="M62.9175 48.2134L68.2351 50.8017L67.4979 44.637L62.9175 48.2134Z" fill="#E4761B" stroke="#E4761B" stroke-width="0.3125" stroke-linecap="round" stroke-linejoin="round"/>
<path d="M68.2351 50.8016L62.9175 48.2134L63.341 51.68L63.294 53.1389L68.2351 50.8016Z" fill="#D7C1B3" stroke="#D7C1B3" stroke-width="0.3125" stroke-linecap="round" stroke-linejoin="round"/>
<path d="M51.7646 50.8016L56.7058 53.1389L56.6745 51.68L57.0666 48.2134L51.7646 50.8016Z" fill="#D7C1B3" stroke="#D7C1B3" stroke-width="0.3125" stroke-linecap="round" stroke-linejoin="round"/>
<path d="M56.7844 42.3468L52.3608 41.0449L55.4824 39.6174L56.7844 42.3468Z" fill="#233447" stroke="#233447" stroke-width="0.3125" stroke-linecap="round" stroke-linejoin="round"/>
<path d="M63.2 42.3468L64.5019 39.6174L67.6392 41.0449L63.2 42.3468Z" fill="#233447" stroke="#233447" stroke-width="0.3125" stroke-linecap="round" stroke-linejoin="round"/>
<path d="M51.7648 50.8017L52.5177 44.4331L47.6079 44.5743L51.7648 50.8017Z" fill="#CD6116" stroke="#CD6116" stroke-width="0.3125" stroke-linecap="round" stroke-linejoin="round"/>
<path d="M67.4824 44.4331L68.2354 50.8017L72.3922 44.5743L67.4824 44.4331Z" fill="#CD6116" stroke="#CD6116" stroke-width="0.3125" stroke-linecap="round" stroke-linejoin="round"/>
<path d="M71.2158 37.4214L62.4001 37.8135L63.2158 42.3469L64.5178 39.6175L67.655 41.0449L71.2158 37.4214Z" fill="#CD6116" stroke="#CD6116" stroke-width="0.3125" stroke-linecap="round" stroke-linejoin="round"/>
<path d="M52.3609 41.0449L55.4981 39.6175L56.7844 42.3469L57.6158 37.8135L48.7844 37.4214L52.3609 41.0449Z" fill="#CD6116" stroke="#CD6116" stroke-width="0.3125" stroke-linecap="round" stroke-linejoin="round"/>
<path d="M48.7844 37.4214L52.4864 44.6371L52.3609 41.0449L48.7844 37.4214Z" fill="#E4751F" stroke="#E4751F" stroke-width="0.3125" stroke-linecap="round" stroke-linejoin="round"/>
<path d="M67.6549 41.0449L67.498 44.6371L71.2157 37.4214L67.6549 41.0449Z" fill="#E4751F" stroke="#E4751F" stroke-width="0.3125" stroke-linecap="round" stroke-linejoin="round"/>
<path d="M57.6158 37.8135L56.7844 42.3468L57.8197 47.6958L58.055 40.6527L57.6158 37.8135Z" fill="#E4751F" stroke="#E4751F" stroke-width="0.3125" stroke-linecap="round" stroke-linejoin="round"/>
<path d="M62.4001 37.8135L61.9766 40.637L62.1648 47.6958L63.2158 42.3468L62.4001 37.8135Z" fill="#E4751F" stroke="#E4751F" stroke-width="0.3125" stroke-linecap="round" stroke-linejoin="round"/>
<path d="M63.2158 42.3469L62.1648 47.6959L62.9177 48.2135L67.4981 44.6371L67.655 41.0449L63.2158 42.3469Z" fill="#F6851B" stroke="#F6851B" stroke-width="0.3125" stroke-linecap="round" stroke-linejoin="round"/>
<path d="M52.3608 41.0449L52.4863 44.6371L57.0667 48.2135L57.8197 47.6959L56.7844 42.3469L52.3608 41.0449Z" fill="#F6851B" stroke="#F6851B" stroke-width="0.3125" stroke-linecap="round" stroke-linejoin="round"/>
<path d="M63.2941 53.139L63.3411 51.6802L62.949 51.3351H57.0352L56.6745 51.6802L56.7058 53.139L51.7646 50.8018L53.4901 52.2135L56.9882 54.6449H62.996L66.5097 52.2135L68.2352 50.8018L63.2941 53.139Z" fill="#C0AD9E" stroke="#C0AD9E" stroke-width="0.3125" stroke-linecap="round" stroke-linejoin="round"/>
<path d="M62.9177 48.2134L62.1648 47.6958H57.8197L57.0667 48.2134L56.6746 51.6801L57.0353 51.335H62.9491L63.3412 51.6801L62.9177 48.2134Z" fill="#161616" stroke="#161616" stroke-width="0.3125" stroke-linecap="round" stroke-linejoin="round"/>
<path d="M78.6667 29.9076L80.0001 23.5076L78.0079 17.5625L62.9177 28.7625L68.7216 33.6723L76.9256 36.0723L78.7452 33.9547L77.9609 33.39L79.2158 32.2449L78.2432 31.4919L79.4981 30.5351L78.6667 29.9076Z" fill="#763D16" stroke="#763D16" stroke-width="0.3125" stroke-linecap="round" stroke-linejoin="round"/>
<path d="M40 23.5076L41.3333 29.9076L40.4863 30.5351L41.7412 31.4919L40.7843 32.2449L42.0392 33.39L41.2549 33.9547L43.0588 36.0723L51.2627 33.6723L57.0667 28.7625L41.9765 17.5625L40 23.5076Z" fill="#763D16" stroke="#763D16" stroke-width="0.3125" stroke-linecap="round" stroke-linejoin="round"/>
<path d="M76.9255 36.0724L68.7216 33.6724L71.2157 37.4214L67.498 44.6371L72.3922 44.5743H79.6863L76.9255 36.0724Z" fill="#F6851B" stroke="#F6851B" stroke-width="0.3125" stroke-linecap="round" stroke-linejoin="round"/>
<path d="M51.2627 33.6724L43.0588 36.0724L40.3293 44.5743H47.6078L52.4862 44.6371L48.7842 37.4214L51.2627 33.6724Z" fill="#F6851B" stroke="#F6851B" stroke-width="0.3125" stroke-linecap="round" stroke-linejoin="round"/>
<path d="M62.3999 37.8135L62.9175 28.7625L65.3019 22.3154H54.7136L57.0666 28.7625L57.6156 37.8135L57.8038 40.6684L57.8195 47.6958H62.1646L62.196 40.6684L62.3999 37.8135Z" fill="#F6851B" stroke="#F6851B" stroke-width="0.3125" stroke-linecap="round" stroke-linejoin="round"/>
</g>
<path d="M117.688 28.98V43.5H114.938V35.932L115.092 31.686H115.048L111.022 43.5H108.536L104.532 31.686H104.488L104.642 35.932V43.5H101.892V28.98H106.292L108.91 36.9L109.834 40.178H109.878L110.824 36.922L113.42 28.98H117.688ZM126.153 43.72C124.994 43.72 123.982 43.4927 123.117 43.038C122.266 42.5833 121.606 41.9307 121.137 41.08C120.668 40.2293 120.433 39.2027 120.433 38C120.433 36.7973 120.668 35.7707 121.137 34.92C121.606 34.0693 122.259 33.4167 123.095 32.962C123.946 32.5073 124.914 32.28 125.999 32.28C127.114 32.28 128.06 32.5073 128.837 32.962C129.614 33.402 130.208 34.0107 130.619 34.788C131.03 35.5507 131.235 36.4233 131.235 37.406C131.235 37.6993 131.228 37.978 131.213 38.242C131.198 38.506 131.176 38.7407 131.147 38.946H122.369V36.856H129.827L128.375 37.384C128.375 36.46 128.162 35.7487 127.737 35.25C127.326 34.7513 126.74 34.502 125.977 34.502C125.42 34.502 124.936 34.634 124.525 34.898C124.129 35.162 123.828 35.558 123.623 36.086C123.418 36.5993 123.315 37.252 123.315 38.044C123.315 38.8213 123.425 39.4667 123.645 39.98C123.88 40.4787 124.202 40.8527 124.613 41.102C125.038 41.3513 125.544 41.476 126.131 41.476C126.776 41.476 127.297 41.3513 127.693 41.102C128.089 40.8527 128.397 40.508 128.617 40.068L131.015 40.992C130.78 41.564 130.421 42.0553 129.937 42.466C129.468 42.8767 128.903 43.192 128.243 43.412C127.598 43.6173 126.901 43.72 126.153 43.72ZM137.49 29.134V39.914C137.49 40.442 137.622 40.8307 137.886 41.08C138.164 41.3147 138.538 41.432 139.008 41.432C139.374 41.432 139.697 41.3807 139.976 41.278C140.254 41.1607 140.504 41.0067 140.724 40.816L141.208 42.818C140.856 43.0967 140.416 43.3167 139.888 43.478C139.36 43.6393 138.802 43.72 138.216 43.72C137.482 43.72 136.83 43.61 136.258 43.39C135.7 43.17 135.26 42.818 134.938 42.334C134.63 41.85 134.476 41.2047 134.476 40.398V29.97L137.49 29.134ZM141.01 32.5V34.744H132.452V32.5H141.01ZM149.426 36.482C149.426 35.8513 149.243 35.36 148.876 35.008C148.524 34.656 148.055 34.48 147.468 34.48C146.926 34.48 146.449 34.6193 146.038 34.898C145.628 35.1767 145.327 35.6387 145.136 36.284L142.562 35.492C142.812 34.524 143.354 33.7467 144.19 33.16C145.041 32.5733 146.178 32.28 147.6 32.28C148.568 32.28 149.412 32.434 150.13 32.742C150.849 33.0353 151.406 33.4827 151.802 34.084C152.213 34.6853 152.418 35.4407 152.418 36.35V40.816C152.418 41.3733 152.682 41.652 153.21 41.652C153.46 41.652 153.694 41.6153 153.914 41.542L153.738 43.412C153.357 43.6027 152.88 43.698 152.308 43.698C151.795 43.698 151.333 43.61 150.922 43.434C150.512 43.258 150.189 42.994 149.954 42.642C149.72 42.2753 149.602 41.8207 149.602 41.278V41.19L150.13 41.102C150.042 41.6593 149.8 42.136 149.404 42.532C149.008 42.9133 148.524 43.2067 147.952 43.412C147.395 43.6173 146.816 43.72 146.214 43.72C145.466 43.72 144.821 43.61 144.278 43.39C143.736 43.1553 143.318 42.818 143.024 42.378C142.731 41.938 142.584 41.3953 142.584 40.75C142.584 39.9287 142.848 39.2613 143.376 38.748C143.904 38.22 144.66 37.8607 145.642 37.67L149.778 36.834L149.756 38.704L147.116 39.232C146.618 39.3347 146.236 39.474 145.972 39.65C145.723 39.8113 145.598 40.0827 145.598 40.464C145.598 40.8307 145.73 41.1093 145.994 41.3C146.273 41.4907 146.603 41.586 146.984 41.586C147.292 41.586 147.593 41.5493 147.886 41.476C148.18 41.4027 148.444 41.2853 148.678 41.124C148.913 40.9627 149.096 40.7427 149.228 40.464C149.36 40.1853 149.426 39.848 149.426 39.452V36.482ZM155.789 43.5V32.5H158.495L158.605 34.48C158.972 33.7467 159.47 33.1967 160.101 32.83C160.746 32.4633 161.458 32.28 162.235 32.28C163.027 32.28 163.738 32.4633 164.369 32.83C165.014 33.1967 165.498 33.7393 165.821 34.458C166.056 33.974 166.371 33.5707 166.767 33.248C167.163 32.9253 167.603 32.6833 168.087 32.522C168.571 32.3607 169.062 32.28 169.561 32.28C170.28 32.28 170.932 32.4267 171.519 32.72C172.12 33.0133 172.597 33.4533 172.949 34.04C173.301 34.6267 173.477 35.3747 173.477 36.284V43.5H170.463V36.878C170.463 36.0713 170.287 35.4993 169.935 35.162C169.583 34.8247 169.128 34.656 168.571 34.656C168.131 34.656 167.72 34.766 167.339 34.986C166.972 35.206 166.679 35.536 166.459 35.976C166.254 36.4013 166.151 36.9367 166.151 37.582V43.5H163.137V36.878C163.137 36.0713 162.954 35.4993 162.587 35.162C162.235 34.8247 161.78 34.656 161.223 34.656C160.842 34.656 160.46 34.7587 160.079 34.964C159.712 35.1693 159.404 35.492 159.155 35.932C158.92 36.372 158.803 36.9513 158.803 37.67V43.5H155.789ZM182.856 36.482C182.856 35.8513 182.673 35.36 182.306 35.008C181.954 34.656 181.485 34.48 180.898 34.48C180.355 34.48 179.879 34.6193 179.468 34.898C179.057 35.1767 178.757 35.6387 178.566 36.284L175.992 35.492C176.241 34.524 176.784 33.7467 177.62 33.16C178.471 32.5733 179.607 32.28 181.03 32.28C181.998 32.28 182.841 32.434 183.56 32.742C184.279 33.0353 184.836 33.4827 185.232 34.084C185.643 34.6853 185.848 35.4407 185.848 36.35V40.816C185.848 41.3733 186.112 41.652 186.64 41.652C186.889 41.652 187.124 41.6153 187.344 41.542L187.168 43.412C186.787 43.6027 186.31 43.698 185.738 43.698C185.225 43.698 184.763 43.61 184.352 43.434C183.941 43.258 183.619 42.994 183.384 42.642C183.149 42.2753 183.032 41.8207 183.032 41.278V41.19L183.56 41.102C183.472 41.6593 183.23 42.136 182.834 42.532C182.438 42.9133 181.954 43.2067 181.382 43.412C180.825 43.6173 180.245 43.72 179.644 43.72C178.896 43.72 178.251 43.61 177.708 43.39C177.165 43.1553 176.747 42.818 176.454 42.378C176.161 41.938 176.014 41.3953 176.014 40.75C176.014 39.9287 176.278 39.2613 176.806 38.748C177.334 38.22 178.089 37.8607 179.072 37.67L183.208 36.834L183.186 38.704L180.546 39.232C180.047 39.3347 179.666 39.474 179.402 39.65C179.153 39.8113 179.028 40.0827 179.028 40.464C179.028 40.8307 179.16 41.1093 179.424 41.3C179.703 41.4907 180.033 41.586 180.414 41.586C180.722 41.586 181.023 41.5493 181.316 41.476C181.609 41.4027 181.873 41.2853 182.108 41.124C182.343 40.9627 182.526 40.7427 182.658 40.464C182.79 40.1853 182.856 39.848 182.856 39.452V36.482ZM193.619 43.72C192.504 43.72 191.485 43.522 190.561 43.126C189.651 42.73 188.911 42.1727 188.339 41.454L190.077 39.694C190.429 40.222 190.898 40.6547 191.485 40.992C192.071 41.3293 192.768 41.498 193.575 41.498C194.147 41.498 194.601 41.4173 194.939 41.256C195.291 41.08 195.467 40.8087 195.467 40.442C195.467 40.2073 195.386 40.0093 195.225 39.848C195.063 39.672 194.741 39.5327 194.257 39.43L192.321 39.034C191.045 38.77 190.135 38.374 189.593 37.846C189.065 37.3033 188.801 36.6067 188.801 35.756C188.801 35.1547 188.977 34.59 189.329 34.062C189.695 33.534 190.238 33.1087 190.957 32.786C191.675 32.4487 192.57 32.28 193.641 32.28C194.741 32.28 195.694 32.456 196.501 32.808C197.322 33.1453 197.967 33.6513 198.437 34.326L196.633 36.086C196.31 35.5727 195.885 35.184 195.357 34.92C194.843 34.6413 194.301 34.502 193.729 34.502C193.318 34.502 192.966 34.546 192.673 34.634C192.379 34.722 192.159 34.8467 192.013 35.008C191.866 35.1547 191.793 35.3453 191.793 35.58C191.793 35.8147 191.895 36.02 192.101 36.196C192.306 36.3573 192.68 36.4967 193.223 36.614L195.467 37.076C196.552 37.296 197.329 37.67 197.799 38.198C198.268 38.7113 198.503 39.3347 198.503 40.068C198.503 40.772 198.312 41.4027 197.931 41.96C197.564 42.5027 197.014 42.9353 196.281 43.258C195.562 43.566 194.675 43.72 193.619 43.72ZM212.104 32.5L207.022 37.802L206.428 38.088L203.128 41.63L203.084 38.418L208.672 32.5H212.104ZM203.92 27.682V43.5H200.906V27.682H203.92ZM207.44 35.998L212.368 43.5H208.958L205.372 37.758L207.44 35.998Z" fill="white"/>
<defs>
<clipPath id="clip0_2001_1316">
<rect width="40" height="40" fill="white" transform="translate(40 16)"/>
</clipPath>
</defs>
</svg>
