<svg width="320" height="72" viewBox="0 0 320 72" fill="none" xmlns="http://www.w3.org/2000/svg">
<rect x="0.5" y="0.5" width="319" height="71" rx="19.5" fill="#3B3B3B"/>
<rect x="0.5" y="0.5" width="319" height="71" rx="19.5" stroke="#A259FF"/>
<g clip-path="url(#clip0_2001_1355)">
<path d="M60 56C71.0457 56 80 47.0457 80 36C80 24.9543 71.0457 16 60 16C48.9543 16 40 24.9543 40 36C40 47.0457 48.9543 56 60 56Z" fill="url(#paint0_radial_2001_1355)"/>
<path d="M52.5586 31.4473C56.582 27.5176 63.1133 27.5176 67.1367 31.4473L67.6211 31.9238C67.8242 32.1191 67.8242 32.4395 67.6211 32.6348L65.9648 34.252C65.8633 34.3535 65.6992 34.3535 65.5977 34.252L64.9336 33.6035C62.1211 30.8613 57.5742 30.8613 54.7617 33.6035L54.0508 34.2988C53.9492 34.4004 53.7852 34.4004 53.6836 34.2988L52.0273 32.6816C51.8242 32.4863 51.8242 32.166 52.0273 31.9707L52.5586 31.4473ZM70.5664 34.791L72.043 36.2285C72.2461 36.4238 72.2461 36.7441 72.043 36.9395L65.3945 43.4316C65.1914 43.627 64.8633 43.627 64.668 43.4316L59.9492 38.8223C59.9023 38.7754 59.8164 38.7754 59.7695 38.8223L55.0508 43.4316C54.8477 43.627 54.5195 43.627 54.3242 43.4316L47.6523 36.9395C47.4492 36.7441 47.4492 36.4238 47.6523 36.2285L49.1289 34.791C49.332 34.5957 49.6602 34.5957 49.8555 34.791L54.5742 39.4004C54.6211 39.4473 54.707 39.4473 54.7539 39.4004L59.4727 34.791C59.6758 34.5957 60.0039 34.5957 60.1992 34.791L64.918 39.4004C64.9648 39.4473 65.0508 39.4473 65.0977 39.4004L69.8164 34.791C70.0352 34.5957 70.3633 34.5957 70.5664 34.791Z" fill="white"/>
</g>
<path d="M104.642 43.5L100.418 28.98H103.652L106.512 40.97L109.416 28.98H112.32L115.268 40.97L118.106 28.98H121.208L116.984 43.5H113.574L111.55 35.58L110.868 32.148H110.824L110.142 35.58L108.14 43.5H104.642ZM128.629 36.482C128.629 35.8513 128.446 35.36 128.079 35.008C127.727 34.656 127.258 34.48 126.671 34.48C126.129 34.48 125.652 34.6193 125.241 34.898C124.831 35.1767 124.53 35.6387 124.339 36.284L121.765 35.492C122.015 34.524 122.557 33.7467 123.393 33.16C124.244 32.5733 125.381 32.28 126.803 32.28C127.771 32.28 128.615 32.434 129.333 32.742C130.052 33.0353 130.609 33.4827 131.005 34.084C131.416 34.6853 131.621 35.4407 131.621 36.35V40.816C131.621 41.3733 131.885 41.652 132.413 41.652C132.663 41.652 132.897 41.6153 133.117 41.542L132.941 43.412C132.56 43.6027 132.083 43.698 131.511 43.698C130.998 43.698 130.536 43.61 130.125 43.434C129.715 43.258 129.392 42.994 129.157 42.642C128.923 42.2753 128.805 41.8207 128.805 41.278V41.19L129.333 41.102C129.245 41.6593 129.003 42.136 128.607 42.532C128.211 42.9133 127.727 43.2067 127.155 43.412C126.598 43.6173 126.019 43.72 125.417 43.72C124.669 43.72 124.024 43.61 123.481 43.39C122.939 43.1553 122.521 42.818 122.227 42.378C121.934 41.938 121.787 41.3953 121.787 40.75C121.787 39.9287 122.051 39.2613 122.579 38.748C123.107 38.22 123.863 37.8607 124.845 37.67L128.981 36.834L128.959 38.704L126.319 39.232C125.821 39.3347 125.439 39.474 125.175 39.65C124.926 39.8113 124.801 40.0827 124.801 40.464C124.801 40.8307 124.933 41.1093 125.197 41.3C125.476 41.4907 125.806 41.586 126.187 41.586C126.495 41.586 126.796 41.5493 127.089 41.476C127.383 41.4027 127.647 41.2853 127.881 41.124C128.116 40.9627 128.299 40.7427 128.431 40.464C128.563 40.1853 128.629 39.848 128.629 39.452V36.482ZM137.962 27.682V40.112C137.962 40.6253 138.05 40.9847 138.226 41.19C138.402 41.3953 138.696 41.498 139.106 41.498C139.356 41.498 139.561 41.4833 139.722 41.454C139.884 41.41 140.089 41.3513 140.338 41.278L140.074 43.258C139.825 43.4047 139.51 43.5147 139.128 43.588C138.762 43.676 138.395 43.72 138.028 43.72C136.958 43.72 136.173 43.4633 135.674 42.95C135.19 42.422 134.948 41.586 134.948 40.442V27.682H137.962ZM144.988 27.682V40.112C144.988 40.6253 145.076 40.9847 145.252 41.19C145.428 41.3953 145.721 41.498 146.132 41.498C146.381 41.498 146.586 41.4833 146.748 41.454C146.909 41.41 147.114 41.3513 147.364 41.278L147.1 43.258C146.85 43.4047 146.535 43.5147 146.154 43.588C145.787 43.676 145.42 43.72 145.054 43.72C143.983 43.72 143.198 43.4633 142.7 42.95C142.216 42.422 141.974 41.586 141.974 40.442V27.682H144.988ZM154.147 43.72C152.988 43.72 151.976 43.4927 151.111 43.038C150.26 42.5833 149.6 41.9307 149.131 41.08C148.662 40.2293 148.427 39.2027 148.427 38C148.427 36.7973 148.662 35.7707 149.131 34.92C149.6 34.0693 150.253 33.4167 151.089 32.962C151.94 32.5073 152.908 32.28 153.993 32.28C155.108 32.28 156.054 32.5073 156.831 32.962C157.608 33.402 158.202 34.0107 158.613 34.788C159.024 35.5507 159.229 36.4233 159.229 37.406C159.229 37.6993 159.222 37.978 159.207 38.242C159.192 38.506 159.17 38.7407 159.141 38.946H150.363V36.856H157.821L156.369 37.384C156.369 36.46 156.156 35.7487 155.731 35.25C155.32 34.7513 154.734 34.502 153.971 34.502C153.414 34.502 152.93 34.634 152.519 34.898C152.123 35.162 151.822 35.558 151.617 36.086C151.412 36.5993 151.309 37.252 151.309 38.044C151.309 38.8213 151.419 39.4667 151.639 39.98C151.874 40.4787 152.196 40.8527 152.607 41.102C153.032 41.3513 153.538 41.476 154.125 41.476C154.77 41.476 155.291 41.3513 155.687 41.102C156.083 40.8527 156.391 40.508 156.611 40.068L159.009 40.992C158.774 41.564 158.415 42.0553 157.931 42.466C157.462 42.8767 156.897 43.192 156.237 43.412C155.592 43.6173 154.895 43.72 154.147 43.72ZM165.484 29.134V39.914C165.484 40.442 165.616 40.8307 165.88 41.08C166.159 41.3147 166.533 41.432 167.002 41.432C167.369 41.432 167.691 41.3807 167.97 41.278C168.249 41.1607 168.498 41.0067 168.718 40.816L169.202 42.818C168.85 43.0967 168.41 43.3167 167.882 43.478C167.354 43.6393 166.797 43.72 166.21 43.72C165.477 43.72 164.824 43.61 164.252 43.39C163.695 43.17 163.255 42.818 162.932 42.334C162.624 41.85 162.47 41.2047 162.47 40.398V29.97L165.484 29.134ZM169.004 32.5V34.744H160.446V32.5H169.004ZM190.506 39.496C190.227 40.4347 189.787 41.2193 189.186 41.85C188.584 42.4807 187.873 42.95 187.052 43.258C186.23 43.566 185.328 43.72 184.346 43.72C182.908 43.72 181.662 43.4193 180.606 42.818C179.564 42.2167 178.758 41.3587 178.186 40.244C177.628 39.1293 177.35 37.7947 177.35 36.24C177.35 34.6853 177.628 33.3507 178.186 32.236C178.758 31.1213 179.564 30.2633 180.606 29.662C181.662 29.0607 182.894 28.76 184.302 28.76C185.299 28.76 186.201 28.8993 187.008 29.178C187.814 29.442 188.496 29.8527 189.054 30.41C189.626 30.9673 190.044 31.6713 190.308 32.522L187.558 33.688C187.308 32.808 186.927 32.1847 186.414 31.818C185.9 31.4367 185.24 31.246 184.434 31.246C183.642 31.246 182.945 31.4367 182.344 31.818C181.757 32.1993 181.302 32.764 180.98 33.512C180.657 34.2453 180.496 35.1547 180.496 36.24C180.496 37.3107 180.642 38.22 180.936 38.968C181.244 39.716 181.691 40.2807 182.278 40.662C182.864 41.0433 183.583 41.234 184.434 41.234C185.226 41.234 185.908 41.0213 186.48 40.596C187.066 40.1707 187.477 39.5253 187.712 38.66L190.506 39.496ZM197.801 32.28C198.916 32.28 199.891 32.5073 200.727 32.962C201.578 33.4167 202.238 34.0693 202.707 34.92C203.191 35.7707 203.433 36.7973 203.433 38C203.433 39.188 203.191 40.2147 202.707 41.08C202.238 41.9307 201.578 42.5833 200.727 43.038C199.891 43.4927 198.916 43.72 197.801 43.72C196.701 43.72 195.726 43.4927 194.875 43.038C194.025 42.5833 193.357 41.9307 192.873 41.08C192.404 40.2147 192.169 39.188 192.169 38C192.169 36.7973 192.404 35.7707 192.873 34.92C193.357 34.0693 194.025 33.4167 194.875 32.962C195.726 32.5073 196.701 32.28 197.801 32.28ZM197.801 34.524C197.244 34.524 196.767 34.656 196.371 34.92C195.99 35.1693 195.697 35.5507 195.491 36.064C195.286 36.5773 195.183 37.2227 195.183 38C195.183 38.7773 195.286 39.4227 195.491 39.936C195.697 40.4493 195.99 40.838 196.371 41.102C196.767 41.3513 197.244 41.476 197.801 41.476C198.344 41.476 198.806 41.3513 199.187 41.102C199.583 40.838 199.884 40.4493 200.089 39.936C200.295 39.4227 200.397 38.7773 200.397 38C200.397 37.2227 200.295 36.5773 200.089 36.064C199.884 35.5507 199.583 35.1693 199.187 34.92C198.806 34.656 198.344 34.524 197.801 34.524ZM205.955 43.5V32.5H208.661L208.837 35.8L208.463 35.448C208.639 34.7293 208.918 34.1353 209.299 33.666C209.68 33.1967 210.142 32.852 210.685 32.632C211.242 32.3973 211.851 32.28 212.511 32.28C213.274 32.28 213.948 32.4267 214.535 32.72C215.136 33.0133 215.606 33.4607 215.943 34.062C216.295 34.6487 216.471 35.3893 216.471 36.284V43.5H213.457V37.142C213.457 36.2033 213.274 35.558 212.907 35.206C212.54 34.8393 212.064 34.656 211.477 34.656C211.066 34.656 210.663 34.7587 210.267 34.964C209.886 35.1547 209.57 35.47 209.321 35.91C209.086 36.35 208.969 36.9367 208.969 37.67V43.5H205.955ZM219.576 43.5V32.5H222.282L222.458 35.8L222.084 35.448C222.26 34.7293 222.539 34.1353 222.92 33.666C223.302 33.1967 223.764 32.852 224.306 32.632C224.864 32.3973 225.472 32.28 226.132 32.28C226.895 32.28 227.57 32.4267 228.156 32.72C228.758 33.0133 229.227 33.4607 229.564 34.062C229.916 34.6487 230.092 35.3893 230.092 36.284V43.5H227.078V37.142C227.078 36.2033 226.895 35.558 226.528 35.206C226.162 34.8393 225.685 34.656 225.098 34.656C224.688 34.656 224.284 34.7587 223.888 34.964C223.507 35.1547 223.192 35.47 222.942 35.91C222.708 36.35 222.59 36.9367 222.59 37.67V43.5H219.576ZM238.301 43.72C237.143 43.72 236.131 43.4927 235.265 43.038C234.415 42.5833 233.755 41.9307 233.285 41.08C232.816 40.2293 232.581 39.2027 232.581 38C232.581 36.7973 232.816 35.7707 233.285 34.92C233.755 34.0693 234.407 33.4167 235.243 32.962C236.094 32.5073 237.062 32.28 238.147 32.28C239.262 32.28 240.208 32.5073 240.985 32.962C241.763 33.402 242.357 34.0107 242.767 34.788C243.178 35.5507 243.383 36.4233 243.383 37.406C243.383 37.6993 243.376 37.978 243.361 38.242C243.347 38.506 243.325 38.7407 243.295 38.946H234.517V36.856H241.975L240.523 37.384C240.523 36.46 240.311 35.7487 239.885 35.25C239.475 34.7513 238.888 34.502 238.125 34.502C237.568 34.502 237.084 34.634 236.673 34.898C236.277 35.162 235.977 35.558 235.771 36.086C235.566 36.5993 235.463 37.252 235.463 38.044C235.463 38.8213 235.573 39.4667 235.793 39.98C236.028 40.4787 236.351 40.8527 236.761 41.102C237.187 41.3513 237.693 41.476 238.279 41.476C238.925 41.476 239.445 41.3513 239.841 41.102C240.237 40.8527 240.545 40.508 240.765 40.068L243.163 40.992C242.929 41.564 242.569 42.0553 242.085 42.466C241.616 42.8767 241.051 43.192 240.391 43.412C239.746 43.6173 239.049 43.72 238.301 43.72ZM250.932 32.28C251.914 32.28 252.743 32.4267 253.418 32.72C254.107 32.9987 254.657 33.3873 255.068 33.886C255.493 34.37 255.794 34.9127 255.97 35.514L253.154 36.526C253.007 35.866 252.758 35.3673 252.406 35.03C252.054 34.6927 251.577 34.524 250.976 34.524C250.418 34.524 249.942 34.656 249.546 34.92C249.15 35.1693 248.849 35.558 248.644 36.086C248.438 36.5993 248.336 37.2447 248.336 38.022C248.336 38.7993 248.438 39.4447 248.644 39.958C248.864 40.4713 249.172 40.8527 249.568 41.102C249.978 41.3513 250.455 41.476 250.998 41.476C251.438 41.476 251.812 41.4027 252.12 41.256C252.428 41.0947 252.677 40.8673 252.868 40.574C253.073 40.2807 253.212 39.9287 253.286 39.518L256.014 40.398C255.852 41.058 255.552 41.6373 255.112 42.136C254.672 42.6347 254.107 43.0233 253.418 43.302C252.728 43.5807 251.929 43.72 251.02 43.72C249.89 43.72 248.893 43.4927 248.028 43.038C247.162 42.5833 246.495 41.9307 246.026 41.08C245.556 40.2293 245.322 39.2027 245.322 38C245.322 36.7973 245.556 35.7707 246.026 34.92C246.495 34.0693 247.155 33.4167 248.006 32.962C248.856 32.5073 249.832 32.28 250.932 32.28ZM262.249 29.134V39.914C262.249 40.442 262.381 40.8307 262.645 41.08C262.924 41.3147 263.298 41.432 263.767 41.432C264.134 41.432 264.457 41.3807 264.735 41.278C265.014 41.1607 265.263 41.0067 265.483 40.816L265.967 42.818C265.615 43.0967 265.175 43.3167 264.647 43.478C264.119 43.6393 263.562 43.72 262.975 43.72C262.242 43.72 261.589 43.61 261.017 43.39C260.46 43.17 260.02 42.818 259.697 42.334C259.389 41.85 259.235 41.2047 259.235 40.398V29.97L262.249 29.134ZM265.769 32.5V34.744H257.211V32.5H265.769Z" fill="white"/>
<defs>
<radialGradient id="paint0_radial_2001_1355" cx="0" cy="0" r="1" gradientUnits="userSpaceOnUse" gradientTransform="translate(40.0001 36.0006) scale(40)">
<stop stop-color="#5D9DF6"/>
<stop offset="1" stop-color="#006FFF"/>
</radialGradient>
<clipPath id="clip0_2001_1355">
<rect width="40" height="40" fill="white" transform="translate(40 16)"/>
</clipPath>
</defs>
</svg>
